{
    "asset": {
        "generator": "CAD Exchanger 3.9.2 (cadexchanger.com)",
        "version": "2.0"
    },
    "accessors": [
        {
            "bufferView": 0,
            "componentType": 5125,
            "count": 58758,
            "type": "SCALAR"
        },
        {
            "bufferView": 1,
            "componentType": 5126,
            "count": 14331,
            "type": "VEC3",
            "max": [
                0.0029518629889935257,
                0.003274906426668167,
                0.014948452822864056
            ],
            "min": [
                -0.002951864618808031,
                -0.003274906426668167,
                0.009748960845172406
            ]
        },
        {
            "bufferView": 2,
            "componentType": 5126,
            "count": 14331,
            "type": "VEC3",
            "max": [
                0.9999998211860657,
                0.999999463558197,
                1.0
            ],
            "min": [
                -0.9999998211860657,
                -0.999999463558197,
                -1.0
            ]
        },
        {
            "bufferView": 3,
            "componentType": 5126,
            "count": 14331,
            "type": "VEC2",
            "max": [
                0.9960159659385681,
                1.0
            ],
            "min": [
                0.0,
                0.08865976333618164
            ]
        },
        {
            "bufferView": 4,
            "componentType": 5125,
            "count": 27186,
            "type": "SCALAR"
        },
        {
            "bufferView": 5,
            "componentType": 5126,
            "count": 5737,
            "type": "VEC3",
            "max": [
                0.009550145827233792,
                0.0012473316164687276,
                0.009551292285323143
            ],
            "min": [
                -0.009550124406814576,
                -0.0012472067028284073,
                -0.009397219866514206
            ]
        },
        {
            "bufferView": 6,
            "componentType": 5126,
            "count": 5737,
            "type": "VEC3",
            "max": [
                0.9999558329582214,
                0.9992910027503967,
                1.0
            ],
            "min": [
                -0.9999485015869141,
                -0.9992910027503967,
                -0.9996262192726135
            ]
        },
        {
            "bufferView": 7,
            "componentType": 5126,
            "count": 5737,
            "type": "VEC2",
            "max": [
                0.15221703052520753,
                1.0
            ],
            "min": [
                0.0,
                0.00146484375
            ]
        },
        {
            "bufferView": 8,
            "componentType": 5125,
            "count": 3216,
            "type": "SCALAR"
        },
        {
            "bufferView": 9,
            "componentType": 5126,
            "count": 793,
            "type": "VEC3",
            "max": [
                0.0017330970149487258,
                0.0017330970149487258,
                0.009749500080943108
            ],
            "min": [
                -0.0017330970149487258,
                -0.0017330970149487258,
                0.007817038334906102
            ]
        },
        {
            "bufferView": 10,
            "componentType": 5126,
            "count": 793,
            "type": "VEC3",
            "max": [
                0.9582657814025879,
                0.9582657814025879,
                1.0
            ],
            "min": [
                -0.9582657814025879,
                -0.9582657814025879,
                -1.0
            ]
        },
        {
            "bufferView": 11,
            "componentType": 5126,
            "count": 793,
            "type": "VEC2",
            "max": [
                0.8295232057571411,
                1.0
            ],
            "min": [
                0.0,
                0.00146484375
            ]
        },
        {
            "bufferView": 12,
            "componentType": 5125,
            "count": 372,
            "type": "SCALAR"
        },
        {
            "bufferView": 13,
            "componentType": 5126,
            "count": 130,
            "type": "VEC3",
            "max": [
                -0.0005802882369607687,
                0.0014724226202815772,
                0.009949494153261185
            ],
            "min": [
                -0.0009304633131250739,
                0.0011221191380172968,
                0.009649085812270642
            ]
        },
        {
            "bufferView": 14,
            "componentType": 5126,
            "count": 130,
            "type": "VEC3",
            "max": [
                0.9999998211860657,
                0.999999463558197,
                0.9999993443489075
            ],
            "min": [
                -0.9999998211860657,
                -0.999999463558197,
                -0.9999993443489075
            ]
        },
        {
            "bufferView": 15,
            "componentType": 5126,
            "count": 130,
            "type": "VEC2",
            "max": [
                0.5906385779380798,
                1.0
            ],
            "min": [
                0.0,
                0.00146484375
            ]
        },
        {
            "bufferView": 16,
            "componentType": 5125,
            "count": 372,
            "type": "SCALAR"
        },
        {
            "bufferView": 17,
            "componentType": 5126,
            "count": 130,
            "type": "VEC3",
            "max": [
                -0.001326357014477253,
                0.00016908618272282183,
                0.009949494153261185
            ],
            "min": [
                -0.001675957813858986,
                -0.00018016448302660137,
                0.009649085812270642
            ]
        },
        {
            "bufferView": 18,
            "componentType": 5126,
            "count": 130,
            "type": "VEC3",
            "max": [
                0.9978582262992859,
                0.9978588819503784,
                0.9999993443489075
            ],
            "min": [
                -0.9978582262992859,
                -0.9978588819503784,
                -0.9999993443489075
            ]
        },
        {
            "bufferView": 19,
            "componentType": 5126,
            "count": 130,
            "type": "VEC2",
            "max": [
                0.5906385779380798,
                1.0
            ],
            "min": [
                0.0,
                0.00146484375
            ]
        },
        {
            "bufferView": 20,
            "componentType": 5125,
            "count": 372,
            "type": "SCALAR"
        },
        {
            "bufferView": 21,
            "componentType": 5126,
            "count": 130,
            "type": "VEC3",
            "max": [
                -0.0005710687837563455,
                -0.001128033036366105,
                0.009949494153261185
            ],
            "min": [
                -0.0009204946109093726,
                -0.0014775870367884637,
                0.009649085812270642
            ]
        },
        {
            "bufferView": 22,
            "componentType": 5126,
            "count": 130,
            "type": "VEC3",
            "max": [
                0.9978587627410889,
                0.9978584051132202,
                0.9999993443489075
            ],
            "min": [
                -0.9978587627410889,
                -0.9978584051132202,
                -0.9999993443489075
            ]
        },
        {
            "bufferView": 23,
            "componentType": 5126,
            "count": 130,
            "type": "VEC2",
            "max": [
                0.5906385779380798,
                1.0
            ],
            "min": [
                0.0,
                0.00146484375
            ]
        },
        {
            "bufferView": 24,
            "componentType": 5125,
            "count": 372,
            "type": "SCALAR"
        },
        {
            "bufferView": 25,
            "componentType": 5126,
            "count": 130,
            "type": "VEC3",
            "max": [
                0.0009304633131250739,
                -0.0011221191380172968,
                0.009949494153261185
            ],
            "min": [
                0.0005802882369607687,
                -0.0014724226202815772,
                0.009649085812270642
            ]
        },
        {
            "bufferView": 26,
            "componentType": 5126,
            "count": 130,
            "type": "VEC3",
            "max": [
                0.9999998211860657,
                0.999999463558197,
                0.9999993443489075
            ],
            "min": [
                -0.9999998211860657,
                -0.999999463558197,
                -0.9999993443489075
            ]
        },
        {
            "bufferView": 27,
            "componentType": 5126,
            "count": 130,
            "type": "VEC2",
            "max": [
                0.5906385779380798,
                1.0
            ],
            "min": [
                0.0,
                0.00146484375
            ]
        },
        {
            "bufferView": 28,
            "componentType": 5125,
            "count": 372,
            "type": "SCALAR"
        },
        {
            "bufferView": 29,
            "componentType": 5126,
            "count": 130,
            "type": "VEC3",
            "max": [
                0.001675957813858986,
                0.00018016448302660137,
                0.009949494153261185
            ],
            "min": [
                0.001326357014477253,
                -0.00016908618272282183,
                0.009649085812270642
            ]
        },
        {
            "bufferView": 30,
            "componentType": 5126,
            "count": 130,
            "type": "VEC3",
            "max": [
                0.9978582262992859,
                0.9978588819503784,
                0.9999993443489075
            ],
            "min": [
                -0.9978582262992859,
                -0.9978588819503784,
                -0.9999993443489075
            ]
        },
        {
            "bufferView": 31,
            "componentType": 5126,
            "count": 130,
            "type": "VEC2",
            "max": [
                0.5906385779380798,
                1.0
            ],
            "min": [
                0.0,
                0.00146484375
            ]
        },
        {
            "bufferView": 32,
            "componentType": 5125,
            "count": 372,
            "type": "SCALAR"
        },
        {
            "bufferView": 33,
            "componentType": 5126,
            "count": 130,
            "type": "VEC3",
            "max": [
                0.0009204946109093726,
                0.0014775870367884637,
                0.009949494153261185
            ],
            "min": [
                0.0005710687837563455,
                0.001128033036366105,
                0.009649085812270642
            ]
        },
        {
            "bufferView": 34,
            "componentType": 5126,
            "count": 130,
            "type": "VEC3",
            "max": [
                0.9978587627410889,
                0.9978584051132202,
                0.9999993443489075
            ],
            "min": [
                -0.9978587627410889,
                -0.9978584051132202,
                -0.9999993443489075
            ]
        },
        {
            "bufferView": 35,
            "componentType": 5126,
            "count": 130,
            "type": "VEC2",
            "max": [
                0.5906385779380798,
                1.0
            ],
            "min": [
                0.0,
                0.00146484375
            ]
        },
        {
            "bufferView": 36,
            "componentType": 5125,
            "count": 2370,
            "type": "SCALAR"
        },
        {
            "bufferView": 37,
            "componentType": 5126,
            "count": 650,
            "type": "VEC3",
            "max": [
                0.004999999888241291,
                0.004999999888241291,
                0.0017086274456232787
            ],
            "min": [
                -0.004999999888241291,
                -0.004999999888241291,
                -0.004441372584551573
            ]
        },
        {
            "bufferView": 38,
            "componentType": 5126,
            "count": 650,
            "type": "VEC3",
            "max": [
                1.0,
                1.0,
                1.0
            ],
            "min": [
                -1.0,
                -1.0,
                -0.7556554675102234
            ]
        },
        {
            "bufferView": 39,
            "componentType": 5126,
            "count": 650,
            "type": "VEC2",
            "max": [
                0.99853515625,
                1.0
            ],
            "min": [
                0.0,
                0.121548593044281
            ]
        }
    ],
    "bufferViews": [
        {
            "buffer": 0,
            "byteOffset": 0,
            "byteLength": 235032,
            "target": 34963
        },
        {
            "buffer": 0,
            "byteOffset": 235032,
            "byteLength": 171972,
            "target": 34962
        },
        {
            "buffer": 0,
            "byteOffset": 407004,
            "byteLength": 171972,
            "target": 34962
        },
        {
            "buffer": 0,
            "byteOffset": 578976,
            "byteLength": 114648,
            "target": 34962
        },
        {
            "buffer": 0,
            "byteOffset": 693624,
            "byteLength": 108744,
            "target": 34963
        },
        {
            "buffer": 0,
            "byteOffset": 802368,
            "byteLength": 68844,
            "target": 34962
        },
        {
            "buffer": 0,
            "byteOffset": 871212,
            "byteLength": 68844,
            "target": 34962
        },
        {
            "buffer": 0,
            "byteOffset": 940056,
            "byteLength": 45896,
            "target": 34962
        },
        {
            "buffer": 0,
            "byteOffset": 985952,
            "byteLength": 12864,
            "target": 34963
        },
        {
            "buffer": 0,
            "byteOffset": 998816,
            "byteLength": 9516,
            "target": 34962
        },
        {
            "buffer": 0,
            "byteOffset": 1008332,
            "byteLength": 9516,
            "target": 34962
        },
        {
            "buffer": 0,
            "byteOffset": 1017848,
            "byteLength": 6344,
            "target": 34962
        },
        {
            "buffer": 0,
            "byteOffset": 1024192,
            "byteLength": 1488,
            "target": 34963
        },
        {
            "buffer": 0,
            "byteOffset": 1025680,
            "byteLength": 1560,
            "target": 34962
        },
        {
            "buffer": 0,
            "byteOffset": 1027240,
            "byteLength": 1560,
            "target": 34962
        },
        {
            "buffer": 0,
            "byteOffset": 1028800,
            "byteLength": 1040,
            "target": 34962
        },
        {
            "buffer": 0,
            "byteOffset": 1029840,
            "byteLength": 1488,
            "target": 34963
        },
        {
            "buffer": 0,
            "byteOffset": 1031328,
            "byteLength": 1560,
            "target": 34962
        },
        {
            "buffer": 0,
            "byteOffset": 1032888,
            "byteLength": 1560,
            "target": 34962
        },
        {
            "buffer": 0,
            "byteOffset": 1034448,
            "byteLength": 1040,
            "target": 34962
        },
        {
            "buffer": 0,
            "byteOffset": 1035488,
            "byteLength": 1488,
            "target": 34963
        },
        {
            "buffer": 0,
            "byteOffset": 1036976,
            "byteLength": 1560,
            "target": 34962
        },
        {
            "buffer": 0,
            "byteOffset": 1038536,
            "byteLength": 1560,
            "target": 34962
        },
        {
            "buffer": 0,
            "byteOffset": 1040096,
            "byteLength": 1040,
            "target": 34962
        },
        {
            "buffer": 0,
            "byteOffset": 1041136,
            "byteLength": 1488,
            "target": 34963
        },
        {
            "buffer": 0,
            "byteOffset": 1042624,
            "byteLength": 1560,
            "target": 34962
        },
        {
            "buffer": 0,
            "byteOffset": 1044184,
            "byteLength": 1560,
            "target": 34962
        },
        {
            "buffer": 0,
            "byteOffset": 1045744,
            "byteLength": 1040,
            "target": 34962
        },
        {
            "buffer": 0,
            "byteOffset": 1046784,
            "byteLength": 1488,
            "target": 34963
        },
        {
            "buffer": 0,
            "byteOffset": 1048272,
            "byteLength": 1560,
            "target": 34962
        },
        {
            "buffer": 0,
            "byteOffset": 1049832,
            "byteLength": 1560,
            "target": 34962
        },
        {
            "buffer": 0,
            "byteOffset": 1051392,
            "byteLength": 1040,
            "target": 34962
        },
        {
            "buffer": 0,
            "byteOffset": 1052432,
            "byteLength": 1488,
            "target": 34963
        },
        {
            "buffer": 0,
            "byteOffset": 1053920,
            "byteLength": 1560,
            "target": 34962
        },
        {
            "buffer": 0,
            "byteOffset": 1055480,
            "byteLength": 1560,
            "target": 34962
        },
        {
            "buffer": 0,
            "byteOffset": 1057040,
            "byteLength": 1040,
            "target": 34962
        },
        {
            "buffer": 0,
            "byteOffset": 1058080,
            "byteLength": 9480,
            "target": 34963
        },
        {
            "buffer": 0,
            "byteOffset": 1067560,
            "byteLength": 7800,
            "target": 34962
        },
        {
            "buffer": 0,
            "byteOffset": 1075360,
            "byteLength": 7800,
            "target": 34962
        },
        {
            "buffer": 0,
            "byteOffset": 1083160,
            "byteLength": 5200,
            "target": 34962
        }
    ],
    "buffers": [
        {
            "byteLength": 1088360,
            "uri": "uploads_files_3021998_Classic+(2)_Size+15.8+mm.bin"
        }
    ],
    "materials": [
        {
            "pbrMetallicRoughness": {
                "metallicFactor": 0.0
            },
            "doubleSided": true
        },
        {
            "pbrMetallicRoughness": {
                "metallicFactor": 0.0
            },
            "doubleSided": true
        },
        {
            "pbrMetallicRoughness": {
                "baseColorFactor": [
                    0.0117647061124444,
                    0.0117647061124444,
                    0.2666666805744171,
                    0.9490196108818054
                ],
                "metallicFactor": 0.0,
                "roughnessFactor": 0.9137254953384399
            },
            "alphaMode": "BLEND",
            "doubleSided": true
        }
    ],
    "meshes": [
        {
            "primitives": [
                {
                    "attributes": {
                        "NORMAL": 2,
                        "POSITION": 1,
                        "TEXCOORD_0": 3
                    },
                    "indices": 0,
                    "material": 0
                }
            ]
        },
        {
            "primitives": [
                {
                    "attributes": {
                        "POSITION": 5,
                        "NORMAL": 6,
                        "TEXCOORD_0": 7
                    },
                    "indices": 4,
                    "material": 1
                }
            ]
        },
        {
            "primitives": [
                {
                    "attributes": {
                        "NORMAL": 10,
                        "POSITION": 9,
                        "TEXCOORD_0": 11
                    },
                    "indices": 8,
                    "material": 1
                }
            ]
        },
        {
            "primitives": [
                {
                    "attributes": {
                        "POSITION": 13,
                        "NORMAL": 14,
                        "TEXCOORD_0": 15
                    },
                    "indices": 12,
                    "material": 1
                }
            ]
        },
        {
            "primitives": [
                {
                    "attributes": {
                        "NORMAL": 18,
                        "POSITION": 17,
                        "TEXCOORD_0": 19
                    },
                    "indices": 16,
                    "material": 1
                }
            ]
        },
        {
            "primitives": [
                {
                    "attributes": {
                        "NORMAL": 22,
                        "POSITION": 21,
                        "TEXCOORD_0": 23
                    },
                    "indices": 20,
                    "material": 1
                }
            ]
        },
        {
            "primitives": [
                {
                    "attributes": {
                        "POSITION": 25,
                        "NORMAL": 26,
                        "TEXCOORD_0": 27
                    },
                    "indices": 24,
                    "material": 1
                }
            ]
        },
        {
            "primitives": [
                {
                    "attributes": {
                        "POSITION": 29,
                        "NORMAL": 30,
                        "TEXCOORD_0": 31
                    },
                    "indices": 28,
                    "material": 1
                }
            ]
        },
        {
            "primitives": [
                {
                    "attributes": {
                        "POSITION": 33,
                        "NORMAL": 34,
                        "TEXCOORD_0": 35
                    },
                    "indices": 32,
                    "material": 1
                }
            ]
        },
        {
            "primitives": [
                {
                    "attributes": {
                        "NORMAL": 38,
                        "POSITION": 37,
                        "TEXCOORD_0": 39
                    },
                    "indices": 36,
                    "material": 2
                }
            ]
        }
    ],
    "nodes": [
        {
            "children": [
                1,
                2,
                3,
                4,
                5,
                6,
                7,
                8,
                9,
                10
            ],
            "name": "unspecified"
        },
        {
            "mesh": 0
        },
        {
            "mesh": 1
        },
        {
            "mesh": 2
        },
        {
            "mesh": 3
        },
        {
            "mesh": 4
        },
        {
            "mesh": 5
        },
        {
            "mesh": 6
        },
        {
            "mesh": 7
        },
        {
            "mesh": 8
        },
        {
            "translation": [
                1.5630178697005095e-14,
                0.0,
                0.014077609404921532
            ],
            "scale": [
                0.5044349431991577,
                0.5044349431991577,
                0.5044349431991577
            ],
            "mesh": 9,
            "name": "Diamond_Round"
        }
    ],
    "scenes": [
        {
            "nodes": [
                0
            ]
        }
    ],
    "scene": 0
}